{"title":"Faster(2010)MPEG-4[DaScubaDude]","uid":13690175,"size":972506147,"categoryP":"video","categoryS":"movies","magnet":"?xt=urn:btih:d2a6532aae4ec321525f84d3df91a028a0246085&amp;dn=Faster%282010%29MPEG-4%5BDaScubaDude%5D&amp;tr=udp%3A%2F%2Ftracker.leechers-paradise.org%3A6969&amp;tr=udp%3A%2F%2Fzer0day.ch%3A1337&amp;tr=udp%3A%2F%2Fopen.demonii.com%3A1337&amp;tr=udp%3A%2F%2Ftracker.coppersurfer.tk%3A6969&amp;tr=udp%3A%2F%2Fexodus.desync.com%3A6969","seeders":0,"leechers":2,"uploader":"dascuba","files":1,"time":1456601397,"description":"Faster (2010)\r\nR | 1h 38min | Action, Crime, Drama | 24 November 2010 (USA)\r\nAn ex-con sets out to avenge his brother's death after they were double-crossed during a heist years ago. During his campaign, however, he's tracked by a veteran cop and an egocentric hit man.\r\nDirector: George Tillman Jr.\r\nWriters: Tony Gayton, Joe Gayton\r\nStars: Dwayne Johnson, Billy Bob Thornton, Maggie Grace \r\n\r\nGeneral\r\nComplete name                            : FasterFASTER_Title1.mp4\r\nFormat                                   : MPEG-4\r\nFormat profile                           : Base Media\r\nCodec ID                                 : isom\r\nFile size                                : 927 MiB\r\nDuration                                 : 1h 37mn\r\nOverall bit rate                         : 1 325 Kbps\r\nMovie name                               : FASTER\r\nWriting application                      : Lavf54.6.100\r\n\r\nVideo\r\nID                                       : 1\r\nFormat                                   : AVC\r\nFormat/Info                              : Advanced Video Codec\r\nFormat profile                           :   \r\nFormat settings, CABAC                   : No\r\nFormat settings, ReFrames                : 6 frames\r\nFormat settings, GOP                     : M=1, N=60\r\nCodec ID                                 : avc1\r\nCodec ID/Info                            : Advanced Video Coding\r\nDuration                                 : 1h 37mn\r\nBit rate                                 : 1 190 Kbps\r\nWidth                                    : 720 pixels\r\nHeight                                   : 404 pixels\r\nDisplay aspect ratio                     : 16:9\r\nFrame rate mode                          : Constant\r\nFrame rate                               : 29.970 fps\r\nColor space                              : YUV\r\nChroma subsampling                       : 4:2:0\r\nBit depth                                : 8 bits\r\nScan type                                : Progressive\r\nBits/(Pixel*Frame)                       : 0.137\r\nStream size                              : 833 MiB (90%)\r\n\r\nAudio\r\nID                                       : 2\r\nFormat                                   : AAC\r\nFormat/Info                              : Advanced Audio Codec\r\nFormat profile                           : LC\r\nCodec ID                                 : 40\r\nDuration                                 : 1h 37mn\r\nBit rate mode                            : Constant\r\nBit rate                                 : 128 Kbps\r\nChannel(s)                               : 2 channels\r\nChannel positions                        : Front: L R\r\nSampling rate                            : 44.1 KHz\r\nCompression mode                         : Lossy\r\nStream size                              : 89.6 MiB (10%)","torrent":{"xt":"urn:btih:d2a6532aae4ec321525f84d3df91a028a0246085","amp;dn":"Faster%282010%29MPEG-4%5BDaScubaDude%5D","amp;tr":["udp%3A%2F%2Ftracker.leechers-paradise.org%3A6969","udp%3A%2F%2Fzer0day.ch%3A1337","udp%3A%2F%2Fopen.demonii.com%3A1337","udp%3A%2F%2Ftracker.coppersurfer.tk%3A6969","udp%3A%2F%2Fexodus.desync.com%3A6969"],"infoHash":"d2a6532aae4ec321525f84d3df91a028a0246085","infoHashBuffer":{"type":"Buffer","data":[210,166,83,42,174,78,195,33,82,95,132,211,223,145,160,40,160,36,96,133]},"announce":[],"urlList":[]}}